<svg xmlns="http://www.w3.org/2000/svg" width="100%" height="100%" viewBox="0 0 364 364" fill-rule="evenodd" xmlns:v="https://vecta.io/nano"><style><![CDATA[.B{stroke-width:1.5}.C{fill-rule:nonzero}.D{stroke:#4c6675}.E{stroke:#415d6d}.F{stroke:#355263}.G{stroke:#5a727f}.H{stroke:#95b0bb}]]></style><circle cx="181.661" cy="181.661" r="181.661" fill="#112839"/><g fill="none" class="B"><path d="M47.46 172.047l9.173 5.393.049.027c.415.209.931.037 1.142-.381l.024-.051c1.035-2.445 1.492-4.575 3.69-6.398 3.49-2.9 7.257-4.195 11.302-3.885 5.438.42 10.635 3.638 12.075 9.195.007.024.013.048.021.072.244.785 1.089 1.232 1.871.988.025-.008.049-.016.073-.025.915-.335 1.86-.647 2.835-.937 4.433-1.313 6.848-5.693 7.92-10.088 1.14-4.645 1.985-8.707 2.535-12.187.04-.255-.04-.468-.24-.638-9.57-7.965-6.652-22.387 5.52-25.59 2.9-.76 5.84-.507 8.82.758 4.75 2.015 7.595 5.817 8.535 11.407.325 1.94.085 3.983-.72 6.128a32.66 32.66 0 0 1-3.885 7.357.98.98 0 0 0-.18.683c.48 5.11 1.283 9.735 2.408 13.875.975 3.585 2.805 7.942 7.29 7.567 3.817-.322 5.737-4.342 6.397-7.777 1.62-8.48 2.798-16.993 3.533-25.538.385-4.42.53-8.497.435-12.232-.005-.255-.115-.45-.33-.585-4.525-2.82-6.825-6.705-6.9-11.655-.173-10.928 10.972-17.843 20.677-13.418.458.208.992.157 1.395-.135 2.963-2.13 5.94-4.29 9.128-6.06 2.06-1.15 4.077-2.352 6.052-3.607.215-.14.283-.33.203-.57-1.205-3.43-1.203-6.963.007-10.598 2.04-6.127 8.888-9.922 15.248-9.15 4.995.61 8.61 3.283 10.845 8.018 1.87 3.965 2.24 7.92 1.11 11.865-.084.302.039.624.3.787l14.61 9.195a1 1 0 0 0 .78.113c1.875-.54 3.697-1.313 5.655-1.47 2.61-.2 5.307.457 8.092 1.972 4.505 2.46 7.035 6.153 7.59 11.078.623 5.58-2.122 10.267-6.187 13.56-.855.697-.713 1.687-.668 2.647.63 12.33 1.5 22.923 2.61 31.778.51 4.02 2.603 13.327 8.685 11.812 2.855-.71 4.778-2.722 5.768-6.037 1.435-4.8 2.357-10.123 2.767-15.968.02-.29-.072-.537-.277-.742-7.035-7.043-6.075-19.373 3.33-24.023 4.065-2.01 8.025-2.097 11.88-.262 4.282 2.04 7.507 5.115 8.43 9.87 1.195 6.17-.515 10.937-5.13 14.302-.269.2-.415.525-.383.855.405 4.76 1.31 9.32 2.715 13.68 1.85 5.745 5.675 8.998 11.475 9.758.481.06.942-.23 1.095-.69.885-2.73 2.648-4.985 5.288-6.765 3.085-2.08 6.257-2.89 9.517-2.43 3.82.535 7.093 2.402 9.818 5.602.975 1.155 1.327 2.625 1.972 3.96.138.29.431.475.752.475.132 0 .263-.032.381-.092 3.035-1.57 6.105-3.408 9.21-5.513a1.19 1.19 0 0 0 .517-.982l.135-51.465c.03-4.538-.855-8.175-3.427-12.09-2.378-3.623-6.15-6.24-9.833-8.423L198.09 35.285c-4.252-2.595-9.772-5.13-14.655-5.19-1.84-.02-3.637.027-5.392.142-3.5.235-7.185 1.49-11.055 3.765L108.78 69.357c-4.117 2.565-8.535 4.785-12.577 7.388-10.785 6.93-24.06 14.497-36.668 22.012-4.59 2.745-9.727 7.125-11.497 12.15-.815 2.315-1.21 4.778-1.185 7.388l.135 39.277c0 4.59.255 9.375.255 14.085-.001.163.083.312.217.39m162.21-43.177c-4.5-3.12-6.48-9.038-5.355-14.453a1.21 1.21 0 0 0-.592-1.297 526.41 526.41 0 0 1-14.415-8.355c-.983-.585-2.153-1.29-3.338-1.155-2.925.33-5.887.45-8.7-.285a.87.87 0 0 0-.712.112c-5.17 3.325-10.7 6.64-16.59 9.945-.28.155-.398.39-.353.705.42 2.97.183 5.435-.712 7.395-1.28 2.81-3.055 5.525-5.325 8.145-.147.172-.246.379-.285.6a7.7 7.7 0 0 0 .105 3.173 17.15 17.15 0 0 1 .465 3.12c.46 7.85 1.085 15.622 1.875 23.317.28 2.735.695 5.325 1.245 7.77.975 4.373 4.845 10.703 9.997 6.48 1.883-1.537 2.828-4.275 3.24-6.615l2.055-11.04c.833-4.162 3.338-7.95 7.823-8.467 7.627-.885 10.575 3.99 11.325 10.485.51 4.47.975 9.51 2.94 13.537 2.565 5.258 9.502 4.005 11.025-1.275 1.08-3.755 1.9-7.87 2.46-12.345 1.255-9.97 2.042-19.445 2.362-28.425.014-.424-.189-.829-.54-1.072" stroke="#88949c"/><path d="M46.875 245.405c.44 5.84 2.425 10.78 5.955 14.82" class="D"/><path d="M52.83 260.225c1.705 1.99 3.643 3.67 5.813 5.04l8.28 5.025c3.45 2.01 7.335 4.747 11.19 6.84" class="E"/><path d="M78.113,277.13l32.722,19.35" class="F"/><path d="M110.835 296.48l6.743 3.975c6.63 3.78 22.465 13.317 47.505 28.612 5.28 3.225 10.62 4.058 16.867 4.163 6.413.112 13.5-2.685 19.005-5.963l10.523-6.225c2.115-1.245 4.05-2.737 6.232-3.9a79.87 79.87 0 0 0 4.815-2.775c9.18-5.73 18.263-10.86 27.098-16.35" stroke="#2c495b"/><path d="M249.623 298.017l27.007-16.515" class="F"/><path d="M276.63 281.502l29.303-17.257" class="E"/><path d="M305.933 264.245c6.065-4.56 9.432-10.465 10.102-17.715" class="D"/><path d="M316.035 246.53l.353-5.625-.158-48.713a.67.67 0 0 0-.36-.607l-9.727-5.445c-.009-.006-.019-.01-.029-.015a.41.41 0 0 0-.544.195.47.47 0 0 0-.012.03c-1.865 5.095-5.52 8.287-10.965 9.577-6.885 1.628-14.048-2.287-16.373-9a.6.6 0 0 0-.585-.405c-11.46.383-12.48 13.65-14.167 21.848-.094.459.047.937.375 1.275 2.165 2.21 3.767 4.717 4.807 7.522.77 2.065.833 4.495.188 7.29-1.763 7.65-8.565 11.955-16.073 10.898-4.522-.638-9.487-4.583-11.152-8.94-2.415-6.323-.465-11.295 3.51-16.605a1.06 1.06 0 0 0 .217-.758c-.385-4.785-1.09-9.36-2.115-13.725-1.695-7.267-9.352-12.75-13.155-2.58-.755 2.02-1.215 3.573-1.38 4.658-1.585 10.255-2.57 21.045-2.955 32.37-.035 1.12.168 1.877.608 2.272 5.265 4.74 8.025 10.905 5.392 17.858" class="G"/><path d="M231.735 249.905c-1.265 3.93-3.927 6.715-7.987 8.355-3.91 1.575-7.695 1.427-11.355-.443-.196-.102-.432-.093-.623.023l-7.477 4.537" class="D"/><path d="M204.293 262.377l-8.835 5.333c-.215.13-.303.32-.263.57l.383 2.115c.77 4.225.06 7.905-2.13 11.04" class="E"/><path d="M193.448 281.435c-6.773 9.037-18.863 8.07-24.345-1.59" class="F"/><path d="M169.103 279.845c-1.38-3.51-1.635-7.21-.765-11.1.063-.28-.05-.572-.285-.735a194.13 194.13 0 0 0-15.008-9.593 1.48 1.48 0 0 0-1.245-.112c-5.99 2.17-11.412 1.125-16.267-3.135" class="E"/><path d="M135.533 255.17c-3.175-2.96-4.635-6.745-4.38-11.355" class="D"/><path d="M131.153 243.815c.105-3.968 2.242-9.45 6.45-11.49a.55.55 0 0 0 .307-.518c-.125-2.63-.182-5.382-.172-8.257 0-.788-.345-1.568-.375-2.333-.285-6.98-1.065-14.02-2.34-21.12-.713-4.005-1.23-9.307-4.883-11.842-4.695-3.255-8.317 1.612-9.48 5.7-1.125 3.955-1.947 8.08-2.467 12.375-.113.922-.458 1.875-.368 2.842a1.05 1.05 0 0 0 .3.645c2.835 2.885 4.438 6.188 4.808 9.908 1.102 11.19-10.508 19.44-20.513 14.227-5.475-2.855-8.075-7.5-7.8-13.935.19-4.445 1.885-7.892 5.085-10.342a.65.65 0 0 0 .263-.653l-1.29-8.04c-1.238-7.605-4.08-12.975-12.233-14.632-.52-.105-.872.09-1.057.585-1.335 3.58-3.443 6.112-6.323 7.597-6.02 3.105-11.562 2.593-16.627-1.537-2-1.635-3.488-3.818-4.463-6.548-.11-.315-.312-.392-.607-.232l-9.488 5.19a1.61 1.61 0 0 0-.885 1.492l-.12 52.508" class="G"/><path d="M131.153 243.815c-.245.51-.34 1.065-.285 1.665.025.265-.095.372-.36.322-1.525-.275-3.133-.375-4.823-.3-.075.005-.147.025-.217.06a.85.85 0 0 0-.188.12c-.165.14-.357.21-.577.21l-10.223-.007c-.055 0-.082-.028-.082-.083 0-.03-.005-.055-.015-.075-.04-.105-.118-.162-.233-.172a45.46 45.46 0 0 0-5.842-.03c-1.265.075-2.523.04-3.773-.105l-3.727-.345-7.688-.218c-2.45-.065-4.715-.252-6.795-.562-1.515-.233-2.992.022-4.485-.233a10.36 10.36 0 0 0-2.94-.075 19.22 19.22 0 0 1-3.037.12 25.71 25.71 0 0 0-2.97.068c-1.105.085-2.193.06-3.263-.075a15.18 15.18 0 0 0-3.172-.045l-7.928.727a10.57 10.57 0 0 1-2.482-.052c-.785-.11-1.56-.17-2.325-.18a1.34 1.34 0 0 0-.683.165c-2.16 1.195-4.215 1.425-6.165.69" class="H"/><path d="M135.533 255.17c-1.015.485-2.043.91-3.083 1.275-.1.04-.172.01-.217-.09-.015-.025-.018-.05-.008-.075.04-.2-.042-.278-.247-.233-3.43.78-6.995 1.205-10.695 1.275-1.253.023-2.438.6-3.758.555-2.665-.105-5.272-.16-7.822-.165a216.48 216.48 0 0 1-7.838-.172c-3.555-.14-6.862-.135-9.922.015-1.24.065-2.42-.013-3.54-.233-.245-.05-.485-.03-.72.06-.715.285-1.4.393-2.055.323-1.31-.135-2.313-.173-3.008-.113a130.62 130.62 0 0 1-5.917.398c-2.13.09-4.23.51-6.3.96-1.33.29-2.715.482-4.155.577-1.5.1-2.915.125-4.245.075-.535-.02-.98.058-1.335.233-.145.075-.28.057-.405-.053-.06-.05-.075-.11-.045-.18.115-.28.027-.392-.263-.337a20.94 20.94 0 0 1-4.545.3c-.545-.02-.957.187-1.237.622-.14.215-.325.27-.555.165-.295-.135-.558-.177-.788-.127" stroke="#7c9ba8"/><path d="M169.103 279.845l-.923.525c-.178.102-.396.108-.577.015-.37-.18-.74-.288-1.11-.323-3.315-.295-6.858-.77-10.628-1.425-.84-.142-1.515.128-2.37.023l-4.74-.503c-.935-.09-2.525-.175-4.77-.255a53.87 53.87 0 0 1-6.93-.697 52.09 52.09 0 0 0-5.04-.578c-1.675-.1-3.355-.272-5.04-.517-2.25-.33-4.212-.443-5.887-.338-2.795.18-5.488.29-8.078.33-2.11.035-4.25-.062-6.42-.292-2.49-.26-4.885-.23-7.185.09-1.732.24-3.45.15-5.205.015-3.285-.255-6.315 1.155-9.63.982-1.15-.06-2.382-.042-3.697.053-.19.015-.368.072-.533.172l-.36.203a.67.67 0 0 1-.652.007c-.41-.215-.815-.282-1.215-.202" stroke="#658796"/><path d="M249.623 298.017l-2.153-.757c-.78-.29-1.517-.47-2.212-.54a38.25 38.25 0 0 0-6.893-.053l-4.387.195-4.328.135c-.675.038-1.192-.21-1.867-.112-1.02.145-2.038.215-3.053.21-.205-.005-.82-.083-1.845-.233-.62-.09-1.237-.11-1.852-.06-1.845.165-3.668-.022-5.52.225-1.795.24-3.68.318-5.655.233-.805-.04-1.618.012-2.438.157a11.74 11.74 0 0 1-2.31.188c-3.715-.08-7.295.152-10.74.697-1.74.275-4.607.448-8.602.518-.645.01-1.273.047-1.883.112-.645.065-1.285.033-1.92-.097a1.17 1.17 0 0 0-.697.067c-.835.35-1.59.523-2.265.518l-11.618-.308c-1.345-.06-4.15-.51-8.415-1.35-.847-.165-1.507.075-2.392-.187a7.74 7.74 0 0 0-1.748-.293c-.95-.055-1.915-.155-2.895-.3a31.89 31.89 0 0 0-2.902-.3c-1.765-.11-3.53-.41-5.295-.9-1.058-.292-2.01-.015-3.12-.09-.99-.065-1.775-.072-2.355-.022-3.035.285-6.068.242-9.098-.128-1.807-.225-3.705-.172-5.43.383-2.43.775-5.077 1.09-7.942.945-.62-.035-1.213.072-1.778.322-.185.085-.31.03-.375-.165l-.112-.322c-.12-.345-.275-.363-.465-.053a.57.57 0 0 1-.473.278c-.245.015-.422-.088-.532-.308-.225-.43-.633-.477-1.223-.142" stroke="#507284"/><path d="M276.63 281.502l-7.252-.892c-.08-.015-.968-.113-2.663-.293-1.03-.11-2.01-.405-2.94-.885-.215-.11-.445-.162-.69-.157l-10.47.172c-.21.005-.37.098-.48.278-.17.29-.435.397-.795.322-1.265-.26-2.487-.295-3.667-.105a1.19 1.19 0 0 1-.645-.075c-.245-.095-.475-.05-.69.135-.145.121-.329.187-.518.188l-8.902.172c-1.22.025-2.478 0-3.773-.075-1.61-.1-2.922.01-3.937.33-.9.285-1.763.408-2.588.368l-7.14-.143c-1.245.01-2.53-.037-3.855-.142a18.98 18.98 0 0 0-3.855.075l-2.985.277c-.975.06-1.935.005-2.88-.165-1.155-.205-2.365-.12-3.63.255-2.015.585-3.995.863-5.94.833a1.68 1.68 0 0 0-.54.075.51.51 0 0 1-.532-.113c-.185-.17-.395-.21-.63-.12-.6.245-.995.118-1.185-.382" stroke="#658796"/><path d="M305.933 264.245c-.345-.26-.668-.28-.968-.06a.71.71 0 0 1-.637.112 6.71 6.71 0 0 0-1.253-.232c-.832-.06-1.702.562-2.625.592-.1.005-.17.053-.21.143-.045.1-.027.19.053.27.005.006.008.014.008.023 0 .018-.013.033-.031.037-1.205.13-2.497.182-3.877.157l-9.3-.33c-2.23-.115-4.69-.457-7.38-1.027-.92-.195-1.838-.25-2.753-.165-.975.085-1.902.045-2.782-.12-1.325-.255-2.645-.328-3.96-.218-1.455.125-2.895.135-4.32.03a21.72 21.72 0 0 0-3.983.068c-2.272.232-4.582-.06-6.892.022h-2.85c-1.715-.045-3.248.04-4.598.255-2.655.43-4.887.623-6.697.578-2.735-.07-5.223.092-7.463.487l-4.41.713a.88.88 0 0 1-.795-.27c-.185-.185-.402-.21-.652-.075a.96.96 0 0 1-.735.082c-2.37-.675-4.853-.322-7.253-.93-.815-.205-1.617-.32-2.407-.345a17.36 17.36 0 0 1-2.985-.352c-1.565-.32-3.085-.245-4.56.225a1.45 1.45 0 0 1-.863.022c-.73-.195-1.485-.172-2.265.068-.28.085-.53.035-.75-.15a1.8 1.8 0 0 0-.742-.39c-.255-.065-.283-.183-.083-.353.055-.05.068-.11.038-.18-.04-.085-.108-.115-.203-.09-.025.005-.047.015-.067.03-.155.095-.248.04-.278-.165-.015-.105-.052-.215-.112-.33" stroke="#7c9ba8"/><path d="M316.035 246.53c-.975.03-1.93.195-2.865.495-1.15.375-2.072.572-2.767.592l-3.353.015c-5.01-.105-9.987-.435-14.932-.99-.9-.1-1.798-.102-2.693-.007-1.07.11-2.107.06-3.112-.15-1.645-.34-3.168-.335-4.568.015-1.26.315-2.54.512-3.84.592a67.01 67.01 0 0 0-5.677.578c-2.768.405-5.565.12-8.303.502a47.1 47.1 0 0 1-4.215.39 26.26 26.26 0 0 0-4.237.555c-1.14.245-2.215.333-3.225.263-1.205-.085-2.42.03-3.645.345-.665.17-1.335.21-2.01.12-.825-.115-1.625-.07-2.4.135-1.04.28-2.183.387-3.428.322-1.055-.06-2.08-.137-3.075-.232-.937-.098-1.807-.78-2.715-.255a.75.75 0 0 1-.705.037c-.605-.26-1.45-.242-2.535.053" class="H"/><path d="M154.043 232.64c4.095 4.275 6.697 9.195 5.767 15.307-.03.225.05.4.24.525l16.643 10.59c.23.146.515.174.765.075 2.055-.802 5.085-1.305 7.2-.427a7.73 7.73 0 0 0 1.732.502.86.86 0 0 0 .608-.12l16.882-10.582a1 1 0 0 0 .458-1.035c-.775-4.235-.06-8.118 2.145-11.648" class="D"/><path d="M206.483 235.827l3.172-3.375a1.02 1.02 0 0 0 .285-.607c.175-1.7.24-2.993.195-3.878-.535-10.685-1.672-21.055-3.412-31.11-.608-3.502-2.235-8.31-5.888-9.525-1.3-.43-2.635-.115-4.005.945-2.737 2.115-4.035 5.79-4.372 9.263-.653 6.585-1.455 17.962-10.868 17.782-6.877-.135-8.97-5.932-9.787-11.565-.46-3.205-1.048-6.43-1.763-9.675-.62-2.81-1.997-4.837-4.132-6.082-5.183-3.03-8.055 3.457-9.075 7.395-.395 1.535-.805 3.942-1.23 7.222-1.315 10.09-2.035 19.728-2.16 28.913-.005.55.195.92.6 1.11" class="G"/><path d="M206.483 235.827l-.698-.172c-.35-.085-.49.05-.42.405.02.105.013.205-.022.3-.085.24-.145.235-.18-.015a.31.31 0 0 0-.068-.173.75.75 0 0 0-.562-.27l-7.35-.712c-1.08-.135-2.115.255-3.233.075-1.935-.31-3.93-.298-5.985.037a13.88 13.88 0 0 1-4.935-.09c-1.64-.325-3.152-.452-4.537-.382a16.92 16.92 0 0 1-4.598-.39l-5.437-1.035c-1.345-.215-2.648-.2-3.908.045-1.24.24-2.497.18-3.772-.18a4.62 4.62 0 0 0-1.418-.173c-.93.023-1.612-.66-2.512-.51a.38.38 0 0 1-.45-.24c-.19-.415-.508-.687-.953-.817-.235-.065-.302.015-.202.24.15.315.067.55-.248.705-.135.065-.282.097-.442.097a1.59 1.59 0 0 0-.51.068" class="H"/></g><path d="M47.46 172.047c-.134-.078-.218-.227-.217-.39 0-4.71-.255-9.495-.255-14.085l-.135-39.277c-.025-2.61.37-5.073 1.185-7.388 1.77-5.025 6.907-9.405 11.497-12.15l36.668-22.012c4.042-2.603 8.46-4.823 12.577-7.388l58.208-35.355c3.87-2.275 7.555-3.53 11.055-3.765 1.755-.115 3.552-.162 5.392-.142 4.883.06 10.403 2.595 14.655 5.19l104.895 63.082c3.683 2.183 7.455 4.8 9.833 8.423 2.572 3.915 3.457 7.552 3.427 12.09l-.135 51.465a1.19 1.19 0 0 1-.517.982c-3.105 2.105-6.175 3.943-9.21 5.513-.118.06-.249.092-.381.092-.321 0-.614-.185-.752-.475-.645-1.335-.997-2.805-1.972-3.96-2.725-3.2-5.998-5.067-9.818-5.602-3.26-.46-6.432.35-9.517 2.43-2.64 1.78-4.403 4.035-5.288 6.765-.153.46-.614.75-1.095.69-5.8-.76-9.625-4.013-11.475-9.758-1.405-4.36-2.31-8.92-2.715-13.68-.032-.33.114-.655.383-.855 4.615-3.365 6.325-8.132 5.13-14.302-.923-4.755-4.148-7.83-8.43-9.87-3.855-1.835-7.815-1.748-11.88.262-9.405 4.65-10.365 16.98-3.33 24.023.205.205.297.452.277.742-.41 5.845-1.332 11.168-2.767 15.968-.99 3.315-2.913 5.327-5.768 6.037-6.082 1.515-8.175-7.792-8.685-11.812-1.11-8.855-1.98-19.448-2.61-31.778-.045-.96-.187-1.95.668-2.647 4.065-3.293 6.81-7.98 6.187-13.56-.555-4.925-3.085-8.618-7.59-11.078-2.785-1.515-5.482-2.172-8.092-1.972-1.958.157-3.78.93-5.655 1.47a1 1 0 0 1-.78-.113l-14.61-9.195c-.261-.163-.384-.485-.3-.787 1.13-3.945.76-7.9-1.11-11.865-2.235-4.735-5.85-7.408-10.845-8.018-6.36-.772-13.208 3.023-15.248 9.15-1.21 3.635-1.212 7.168-.007 10.598.08.24.012.43-.203.57-1.975 1.255-3.992 2.457-6.052 3.607-3.188 1.77-6.165 3.93-9.128 6.06-.403.292-.937.343-1.395.135-9.705-4.425-20.85 2.49-20.677 13.418.075 4.95 2.375 8.835 6.9 11.655.215.135.325.33.33.585.095 3.735-.05 7.812-.435 12.232-.735 8.545-1.913 17.058-3.533 25.538-.66 3.435-2.58 7.455-6.397 7.777-4.485.375-6.315-3.982-7.29-7.567-1.125-4.14-1.928-8.765-2.408-13.875a.98.98 0 0 1 .18-.683 32.66 32.66 0 0 0 3.885-7.357c.805-2.145 1.045-4.188.72-6.128-.94-5.59-3.785-9.392-8.535-11.407-2.98-1.265-5.92-1.518-8.82-.758-12.172 3.203-15.09 17.625-5.52 25.59.2.17.28.383.24.638-.55 3.48-1.395 7.542-2.535 12.187-1.072 4.395-3.487 8.775-7.92 10.088-.975.29-1.92.602-2.835.937-.024.009-.048.017-.073.025-.782.244-1.627-.203-1.871-.988-.008-.024-.014-.048-.021-.072-1.44-5.557-6.637-8.775-12.075-9.195-4.045-.31-7.812.985-11.302 3.885-2.198 1.823-2.655 3.953-3.69 6.398-.008.017-.015.034-.024.051-.211.418-.727.59-1.142.381-.017-.009-.033-.018-.049-.027l-9.173-5.393zm156.855-57.63c-1.125 5.415.855 11.333 5.355 14.453.351.243.554.648.54 1.072-.32 8.98-1.107 18.455-2.362 28.425-.56 4.475-1.38 8.59-2.46 12.345-1.523 5.28-8.46 6.533-11.025 1.275-1.965-4.027-2.43-9.067-2.94-13.537-.75-6.495-3.698-11.37-11.325-10.485-4.485.517-6.99 4.305-7.823 8.467l-2.055 11.04c-.412 2.34-1.357 5.078-3.24 6.615-5.152 4.223-9.022-2.107-9.997-6.48-.55-2.445-.965-5.035-1.245-7.77-.79-7.695-1.415-15.467-1.875-23.317a17.15 17.15 0 0 0-.465-3.12 7.7 7.7 0 0 1-.105-3.173c.039-.221.138-.428.285-.6 2.27-2.62 4.045-5.335 5.325-8.145.895-1.96 1.132-4.425.712-7.395-.045-.315.073-.55.353-.705 5.89-3.305 11.42-6.62 16.59-9.945a.87.87 0 0 1 .712-.112c2.813.735 5.775.615 8.7.285 1.185-.135 2.355.57 3.338 1.155a526.41 526.41 0 0 0 14.415 8.355 1.21 1.21 0 0 1 .592 1.297z" fill="#fffffe" class="C"/><path d="M131.153 243.815c-.245.51-.34 1.065-.285 1.665.025.265-.095.372-.36.322-1.525-.275-3.133-.375-4.823-.3-.075.005-.147.025-.217.06a.85.85 0 0 0-.188.12c-.165.14-.357.21-.577.21l-10.223-.007c-.055 0-.082-.028-.082-.083 0-.03-.005-.055-.015-.075-.04-.105-.118-.162-.233-.172a45.46 45.46 0 0 0-5.842-.03c-1.265.075-2.523.04-3.773-.105l-3.727-.345-7.688-.218c-2.45-.065-4.715-.252-6.795-.562-1.515-.233-2.992.022-4.485-.233a10.36 10.36 0 0 0-2.94-.075 19.22 19.22 0 0 1-3.037.12 25.71 25.71 0 0 0-2.97.068c-1.105.085-2.193.06-3.263-.075a15.18 15.18 0 0 0-3.172-.045l-7.928.727a10.57 10.57 0 0 1-2.482-.052c-.785-.11-1.56-.17-2.325-.18a1.34 1.34 0 0 0-.683.165c-2.16 1.195-4.215 1.425-6.165.69l.12-52.508a1.61 1.61 0 0 1 .885-1.492l9.488-5.19c.295-.16.497-.083.607.232.975 2.73 2.463 4.913 4.463 6.548 5.065 4.13 10.607 4.642 16.627 1.537 2.88-1.485 4.988-4.017 6.323-7.597.185-.495.537-.69 1.057-.585 8.153 1.657 10.995 7.027 12.233 14.632l1.29 8.04a.65.65 0 0 1-.263.653c-3.2 2.45-4.895 5.897-5.085 10.342-.275 6.435 2.325 11.08 7.8 13.935 10.005 5.213 21.615-3.037 20.513-14.227-.37-3.72-1.973-7.023-4.808-9.908a1.05 1.05 0 0 1-.3-.645c-.09-.967.255-1.92.368-2.842.52-4.295 1.342-8.42 2.467-12.375 1.163-4.088 4.785-8.955 9.48-5.7 3.653 2.535 4.17 7.837 4.883 11.842 1.275 7.1 2.055 14.14 2.34 21.12.03.765.375 1.545.375 2.333-.01 2.875.047 5.627.172 8.257a.55.55 0 0 1-.307.518c-4.208 2.04-6.345 7.522-6.45 11.49zm184.882 2.715c-.975.03-1.93.195-2.865.495-1.15.375-2.072.572-2.767.592l-3.353.015c-5.01-.105-9.987-.435-14.932-.99-.9-.1-1.798-.102-2.693-.007-1.07.11-2.107.06-3.112-.15-1.645-.34-3.168-.335-4.568.015-1.26.315-2.54.512-3.84.592a67.01 67.01 0 0 0-5.677.578c-2.768.405-5.565.12-8.303.502a47.1 47.1 0 0 1-4.215.39 26.26 26.26 0 0 0-4.237.555c-1.14.245-2.215.333-3.225.263-1.205-.085-2.42.03-3.645.345-.665.17-1.335.21-2.01.12-.825-.115-1.625-.07-2.4.135-1.04.28-2.183.387-3.428.322-1.055-.06-2.08-.137-3.075-.232-.937-.098-1.807-.78-2.715-.255a.75.75 0 0 1-.705.037c-.605-.26-1.45-.242-2.535.053 2.633-6.953-.127-13.118-5.392-17.858-.44-.395-.643-1.152-.608-2.272.385-11.325 1.37-22.115 2.955-32.37.165-1.085.625-2.638 1.38-4.658 3.803-10.17 11.46-4.687 13.155 2.58 1.025 4.365 1.73 8.94 2.115 13.725a1.06 1.06 0 0 1-.217.758c-3.975 5.31-5.925 10.282-3.51 16.605 1.665 4.357 6.63 8.302 11.152 8.94 7.508 1.057 14.31-3.248 16.073-10.898.645-2.795.582-5.225-.188-7.29-1.04-2.805-2.642-5.312-4.807-7.522-.328-.338-.469-.816-.375-1.275 1.687-8.198 2.707-21.465 14.167-21.848a.6.6 0 0 1 .585.405c2.325 6.713 9.488 10.628 16.373 9 5.445-1.29 9.1-4.482 10.965-9.577a.47.47 0 0 1 .012-.03.41.41 0 0 1 .544-.195c.01.005.02.009.029.015l9.727 5.445a.67.67 0 0 1 .36.607l.158 48.713c-.01 1.22-.128 3.095-.353 5.625zm-109.552-10.703l-.698-.172c-.35-.085-.49.05-.42.405.02.105.013.205-.022.3-.085.24-.145.235-.18-.015a.31.31 0 0 0-.068-.173.75.75 0 0 0-.562-.27l-7.35-.712c-1.08-.135-2.115.255-3.233.075-1.935-.31-3.93-.298-5.985.037a13.88 13.88 0 0 1-4.935-.09c-1.64-.325-3.152-.452-4.537-.382a16.92 16.92 0 0 1-4.598-.39l-5.437-1.035c-1.345-.215-2.648-.2-3.908.045-1.24.24-2.497.18-3.772-.18a4.62 4.62 0 0 0-1.418-.173c-.93.023-1.612-.66-2.512-.51a.38.38 0 0 1-.45-.24c-.19-.415-.508-.687-.953-.817-.235-.065-.302.015-.202.24.15.315.067.55-.248.705-.135.065-.282.097-.442.097a1.59 1.59 0 0 0-.51.068c-.405-.19-.605-.56-.6-1.11.125-9.185.845-18.823 2.16-28.913.425-3.28.835-5.687 1.23-7.222 1.02-3.938 3.892-10.425 9.075-7.395 2.135 1.245 3.512 3.272 4.132 6.082.715 3.245 1.303 6.47 1.763 9.675.817 5.633 2.91 11.43 9.787 11.565 9.413.18 10.215-11.197 10.868-17.782.337-3.473 1.635-7.148 4.372-9.263 1.37-1.06 2.705-1.375 4.005-.945 3.653 1.215 5.28 6.023 5.888 9.525 1.74 10.055 2.877 20.425 3.412 31.11.045.885-.02 2.178-.195 3.878a1.02 1.02 0 0 1-.285.607l-3.172 3.375z" fill="#a3bcc5" class="C"/><path d="M206.483 235.827c-2.205 3.53-2.92 7.413-2.145 11.648a1 1 0 0 1-.458 1.035l-16.882 10.582a.86.86 0 0 1-.608.12 7.73 7.73 0 0 1-1.732-.502c-2.115-.878-5.145-.375-7.2.427-.25.099-.535.071-.765-.075l-16.643-10.59c-.19-.125-.27-.3-.24-.525.93-6.112-1.672-11.032-5.767-15.307a1.59 1.59 0 0 1 .51-.068c.16 0 .307-.032.442-.097.315-.155.398-.39.248-.705-.1-.225-.033-.305.202-.24.445.13.763.402.953.817a.38.38 0 0 0 .45.24c.9-.15 1.582.533 2.512.51a4.62 4.62 0 0 1 1.418.173c1.275.36 2.532.42 3.772.18 1.26-.245 2.563-.26 3.908-.045a80.87 80.87 0 0 1 5.437 1.035 16.92 16.92 0 0 0 4.598.39c1.385-.07 2.897.057 4.537.382a13.88 13.88 0 0 0 4.935.09c2.055-.335 4.05-.347 5.985-.037 1.118.18 2.153-.21 3.233-.075a108.35 108.35 0 0 0 7.35.712.75.75 0 0 1 .562.27.31.31 0 0 1 .068.173c.035.25.095.255.18.015.035-.095.042-.195.022-.3-.07-.355.07-.49.42-.405l.698.172zm-75.33 7.988c-.255 4.61 1.205 8.395 4.38 11.355-1.015.485-2.043.91-3.083 1.275-.1.04-.172.01-.217-.09-.015-.025-.018-.05-.008-.075.04-.2-.042-.278-.247-.233-3.43.78-6.995 1.205-10.695 1.275-1.253.023-2.438.6-3.758.555-2.665-.105-5.272-.16-7.822-.165a216.48 216.48 0 0 1-7.838-.172c-3.555-.14-6.862-.135-9.922.015-1.24.065-2.42-.013-3.54-.233-.245-.05-.485-.03-.72.06-.715.285-1.4.393-2.055.323-1.31-.135-2.313-.173-3.008-.113a130.62 130.62 0 0 1-5.917.398c-2.13.09-4.23.51-6.3.96-1.33.29-2.715.482-4.155.577-1.5.1-2.915.125-4.245.075-.535-.02-.98.058-1.335.233-.145.075-.28.057-.405-.053-.06-.05-.075-.11-.045-.18.115-.28.027-.392-.263-.337a20.94 20.94 0 0 1-4.545.3c-.545-.02-.957.187-1.237.622-.14.215-.325.27-.555.165-.295-.135-.558-.177-.788-.127-3.53-4.04-5.515-8.98-5.955-14.82 1.95.735 4.005.505 6.165-.69a1.34 1.34 0 0 1 .683-.165c.765.01 1.54.07 2.325.18a10.57 10.57 0 0 0 2.482.052l7.928-.727a15.18 15.18 0 0 1 3.172.045c1.07.135 2.158.16 3.263.075a25.71 25.71 0 0 1 2.97-.068c1.02.04 2.032 0 3.037-.12a10.36 10.36 0 0 1 2.94.075c1.493.255 2.97 0 4.485.233 2.08.31 4.345.497 6.795.562l7.688.218c.6.02 1.842.135 3.727.345 1.25.145 2.508.18 3.773.105a45.46 45.46 0 0 1 5.842.03c.115.01.193.067.233.172.01.02.015.045.015.075 0 .055.027.083.082.083l10.223.007c.22 0 .412-.07.577-.21a.85.85 0 0 1 .188-.12c.07-.035.142-.055.217-.06 1.69-.075 3.298.025 4.823.3.265.05.385-.057.36-.322-.055-.6.04-1.155.285-1.665zm184.882 2.715c-.67 7.25-4.037 13.155-10.102 17.715-.345-.26-.668-.28-.968-.06a.71.71 0 0 1-.637.112 6.71 6.71 0 0 0-1.253-.232c-.832-.06-1.702.562-2.625.592-.1.005-.17.053-.21.143-.045.1-.027.19.053.27.005.006.008.014.008.023 0 .018-.013.033-.031.037-1.205.13-2.497.182-3.877.157-3.345-.07-6.445-.18-9.3-.33-2.23-.115-4.69-.457-7.38-1.027-.92-.195-1.838-.25-2.753-.165-.975.085-1.902.045-2.782-.12-1.325-.255-2.645-.328-3.96-.218-1.455.125-2.895.135-4.32.03a21.72 21.72 0 0 0-3.983.068c-2.272.232-4.582-.06-6.892.022-.95.03-1.9.03-2.85 0-1.715-.045-3.248.04-4.598.255-2.655.43-4.887.623-6.697.578-2.735-.07-5.223.092-7.463.487l-4.41.713a.88.88 0 0 1-.795-.27c-.185-.185-.402-.21-.652-.075a.96.96 0 0 1-.735.082c-2.37-.675-4.853-.322-7.253-.93-.815-.205-1.617-.32-2.407-.345a17.36 17.36 0 0 1-2.985-.352c-1.565-.32-3.085-.245-4.56.225a1.45 1.45 0 0 1-.863.022c-.73-.195-1.485-.172-2.265.068-.28.085-.53.035-.75-.15a1.8 1.8 0 0 0-.742-.39c-.255-.065-.283-.183-.083-.353.055-.05.068-.11.038-.18-.04-.085-.108-.115-.203-.09-.025.005-.047.015-.067.03-.155.095-.248.04-.278-.165-.015-.105-.052-.215-.112-.33l7.477-4.537c.191-.116.427-.125.623-.023 3.66 1.87 7.445 2.018 11.355.443 4.06-1.64 6.722-4.425 7.987-8.355 1.085-.295 1.93-.313 2.535-.053a.75.75 0 0 0 .705-.037c.908-.525 1.778.157 2.715.255.995.095 2.02.172 3.075.232 1.245.065 2.388-.042 3.428-.322.775-.205 1.575-.25 2.4-.135.675.09 1.345.05 2.01-.12 1.225-.315 2.44-.43 3.645-.345 1.01.07 2.085-.018 3.225-.263a26.26 26.26 0 0 1 4.237-.555 47.1 47.1 0 0 0 4.215-.39c2.738-.382 5.535-.097 8.303-.502a67.01 67.01 0 0 1 5.677-.578c1.3-.08 2.58-.277 3.84-.592 1.4-.35 2.923-.355 4.568-.015 1.005.21 2.042.26 3.112.15.895-.095 1.793-.093 2.693.007 4.945.555 9.922.885 14.932.99a62.45 62.45 0 0 0 3.353-.015c.695-.02 1.617-.217 2.767-.592.935-.3 1.89-.465 2.865-.495z" fill="#86a4b0" class="C"/><path d="M135.533 255.17c4.855 4.26 10.277 5.305 16.267 3.135a1.48 1.48 0 0 1 1.245.112 194.13 194.13 0 0 1 15.008 9.593c.235.163.348.455.285.735-.87 3.89-.615 7.59.765 11.1l-.923.525c-.178.102-.396.108-.577.015-.37-.18-.74-.288-1.11-.323-3.315-.295-6.858-.77-10.628-1.425-.84-.142-1.515.128-2.37.023l-4.74-.503c-.935-.09-2.525-.175-4.77-.255a53.87 53.87 0 0 1-6.93-.697 52.09 52.09 0 0 0-5.04-.578c-1.675-.1-3.355-.272-5.04-.517-2.25-.33-4.212-.443-5.887-.338-2.795.18-5.488.29-8.078.33-2.11.035-4.25-.062-6.42-.292-2.49-.26-4.885-.23-7.185.09-1.732.24-3.45.15-5.205.015-3.285-.255-6.315 1.155-9.63.982-1.15-.06-2.382-.042-3.697.053-.19.015-.368.072-.533.172l-.36.203a.67.67 0 0 1-.652.007c-.41-.215-.815-.282-1.215-.202-3.855-2.093-7.74-4.83-11.19-6.84a256.74 256.74 0 0 1-8.28-5.025c-2.17-1.37-4.108-3.05-5.813-5.04.23-.05.493-.008.788.127.23.105.415.05.555-.165.28-.435.692-.642 1.237-.622a20.94 20.94 0 0 0 4.545-.3c.29-.055.378.057.263.337-.03.07-.015.13.045.18.125.11.26.128.405.053.355-.175.8-.253 1.335-.233 1.33.05 2.745.025 4.245-.075 1.44-.095 2.825-.287 4.155-.577 2.07-.45 4.17-.87 6.3-.96a130.62 130.62 0 0 0 5.917-.398c.695-.06 1.698-.022 3.008.113.655.07 1.34-.038 2.055-.323.235-.09.475-.11.72-.06 1.12.22 2.3.298 3.54.233 3.06-.15 6.367-.155 9.922-.015a216.48 216.48 0 0 0 7.838.172c2.55.005 5.157.06 7.822.165 1.32.045 2.505-.532 3.758-.555 3.7-.07 7.265-.495 10.695-1.275.205-.045.287.033.247.233-.01.025-.007.05.008.075.045.1.117.13.217.09 1.04-.365 2.068-.79 3.083-1.275zm68.76 7.207c.06.115.097.225.112.33.03.205.123.26.278.165.02-.015.042-.025.067-.03.095-.025.163.005.203.09.03.07.017.13-.038.18-.2.17-.172.288.083.353a1.8 1.8 0 0 1 .742.39c.22.185.47.235.75.15.78-.24 1.535-.263 2.265-.068a1.45 1.45 0 0 0 .863-.022c1.475-.47 2.995-.545 4.56-.225a17.36 17.36 0 0 0 2.985.352c.79.025 1.592.14 2.407.345 2.4.608 4.883.255 7.253.93a.96.96 0 0 0 .735-.082c.25-.135.467-.11.652.075a.88.88 0 0 0 .795.27l4.41-.713c2.24-.395 4.728-.557 7.463-.487 1.81.045 4.042-.148 6.697-.578 1.35-.215 2.883-.3 4.598-.255h2.85l6.892-.022a21.72 21.72 0 0 1 3.983-.068c1.425.105 2.865.095 4.32-.03 1.315-.11 2.635-.037 3.96.218.88.165 1.807.205 2.782.12.915-.085 1.833-.03 2.753.165 2.69.57 5.15.912 7.38 1.027l9.3.33c1.38.025 2.672-.027 3.877-.157.018-.004.031-.019.031-.037 0-.009-.003-.017-.008-.023-.08-.08-.098-.17-.053-.27.04-.09.11-.138.21-.143.923-.03 1.793-.652 2.625-.592a6.71 6.71 0 0 1 1.253.232.71.71 0 0 0 .637-.112c.3-.22.623-.2.968.06l-29.303 17.257-7.252-.892c-.08-.015-.968-.113-2.663-.293-1.03-.11-2.01-.405-2.94-.885-.215-.11-.445-.162-.69-.157l-10.47.172c-.21.005-.37.098-.48.278-.17.29-.435.397-.795.322-1.265-.26-2.487-.295-3.667-.105a1.19 1.19 0 0 1-.645-.075c-.245-.095-.475-.05-.69.135-.145.121-.329.187-.518.188l-8.902.172c-1.22.025-2.478 0-3.773-.075-1.61-.1-2.922.01-3.937.33-.9.285-1.763.408-2.588.368l-7.14-.143c-1.245.01-2.53-.037-3.855-.142a18.98 18.98 0 0 0-3.855.075l-2.985.277c-.975.06-1.935.005-2.88-.165-1.155-.205-2.365-.12-3.63.255-2.015.585-3.995.863-5.94.833a1.68 1.68 0 0 0-.54.075.51.51 0 0 1-.532-.113c-.185-.17-.395-.21-.63-.12-.6.245-.995.118-1.185-.382 2.19-3.135 2.9-6.815 2.13-11.04l-.383-2.115c-.04-.25.048-.44.263-.57l8.835-5.333z" fill="#7192a0" class="C"/><path d="M169.103 279.845c5.482 9.66 17.572 10.627 24.345 1.59.19.5.585.627 1.185.382.235-.09.445-.05.63.12a.51.51 0 0 0 .532.113 1.68 1.68 0 0 1 .54-.075c1.945.03 3.925-.248 5.94-.833 1.265-.375 2.475-.46 3.63-.255.945.17 1.905.225 2.88.165a39.16 39.16 0 0 0 2.985-.277 18.98 18.98 0 0 1 3.855-.075c1.325.105 2.61.152 3.855.142 2.365-.015 4.745.033 7.14.143.825.04 1.688-.083 2.588-.368 1.015-.32 2.327-.43 3.937-.33 1.295.075 2.553.1 3.773.075l8.902-.172c.189-.001.373-.067.518-.188.215-.185.445-.23.69-.135a1.19 1.19 0 0 0 .645.075c1.18-.19 2.402-.155 3.667.105.36.075.625-.032.795-.322.11-.18.27-.273.48-.278l10.47-.172c.245-.005.475.047.69.157.93.48 1.91.775 2.94.885l2.663.293c2.225.4 4.642.697 7.252.892l-27.007 16.515a61.91 61.91 0 0 1-2.153-.757c-.78-.29-1.517-.47-2.212-.54a38.25 38.25 0 0 0-6.893-.053c-1.67.135-3.132.2-4.387.195-1.385 0-2.828.045-4.328.135-.675.038-1.192-.21-1.867-.112-1.02.145-2.038.215-3.053.21-.205-.005-.82-.083-1.845-.233-.62-.09-1.237-.11-1.852-.06-1.845.165-3.668-.022-5.52.225-1.795.24-3.68.318-5.655.233-.805-.04-1.618.012-2.438.157a11.74 11.74 0 0 1-2.31.188c-3.715-.08-7.295.152-10.74.697-1.74.275-4.607.448-8.602.518-.645.01-1.273.047-1.883.112-.645.065-1.285.033-1.92-.097a1.17 1.17 0 0 0-.697.067c-.835.35-1.59.523-2.265.518l-11.618-.308c-1.345-.06-4.15-.51-8.415-1.35-.847-.165-1.507.075-2.392-.187a7.74 7.74 0 0 0-1.748-.293c-.95-.055-1.915-.155-2.895-.3a31.89 31.89 0 0 0-2.902-.3c-1.765-.11-3.53-.41-5.295-.9-1.058-.292-2.01-.015-3.12-.09-.99-.065-1.775-.072-2.355-.022-3.035.285-6.068.242-9.098-.128-1.807-.225-3.705-.172-5.43.383-2.43.775-5.077 1.09-7.942.945-.62-.035-1.213.072-1.778.322-.185.085-.31.03-.375-.165l-.112-.322c-.12-.345-.275-.363-.465-.053a.57.57 0 0 1-.473.278c-.245.015-.422-.088-.532-.308-.225-.43-.633-.477-1.223-.142l-32.722-19.35c.4-.08.805-.013 1.215.202a.67.67 0 0 0 .652-.007c.12-.065.24-.133.36-.203.165-.1.343-.157.533-.172 1.315-.095 2.547-.113 3.697-.053 3.315.173 6.345-1.237 9.63-.982 1.755.135 3.473.225 5.205-.015 2.3-.32 4.695-.35 7.185-.09 2.17.23 4.31.327 6.42.292 2.59-.04 5.283-.15 8.078-.33 1.675-.105 3.637.008 5.887.338 1.685.245 3.365.417 5.04.517a52.09 52.09 0 0 1 5.04.578 53.87 53.87 0 0 0 6.93.697c2.245.08 3.835.165 4.77.255l4.74.503c.855.105 1.53-.165 2.37-.023 3.77.655 7.313 1.13 10.628 1.425.37.035.74.143 1.11.323.181.093.399.087.577-.015l.923-.525z" fill="#597b8c" class="C"/><path d="M249.623 298.017l-27.098 16.35a79.87 79.87 0 0 1-4.815 2.775c-2.182 1.163-4.117 2.655-6.232 3.9l-10.523 6.225c-5.505 3.278-12.592 6.075-19.005 5.963-6.247-.105-11.587-.938-16.867-4.163l-47.505-28.612c-3.11-1.77-5.358-3.095-6.743-3.975.59-.335.998-.288 1.223.142.11.22.287.323.532.308a.57.57 0 0 0 .473-.278c.19-.31.345-.292.465.053l.112.322c.065.195.19.25.375.165.565-.25 1.158-.357 1.778-.322 2.865.145 5.512-.17 7.942-.945 1.725-.555 3.623-.608 5.43-.383 3.03.37 6.063.413 9.098.128.58-.05 1.365-.043 2.355.022 1.11.075 2.062-.202 3.12.09 1.765.49 3.53.79 5.295.9a31.89 31.89 0 0 1 2.902.3c.98.145 1.945.245 2.895.3a7.74 7.74 0 0 1 1.748.293c.885.262 1.545.022 2.392.187 4.265.84 7.07 1.29 8.415 1.35l11.618.308c.675.005 1.43-.168 2.265-.518a1.17 1.17 0 0 1 .697-.067c.635.13 1.275.162 1.92.097.61-.065 1.238-.102 1.883-.112 3.995-.07 6.862-.243 8.602-.518 3.445-.545 7.025-.777 10.74-.697a11.74 11.74 0 0 0 2.31-.188c.82-.145 1.633-.197 2.438-.157 1.975.085 3.86.007 5.655-.233 1.852-.247 3.675-.06 5.52-.225.615-.05 1.232-.03 1.852.06 1.025.15 1.64.228 1.845.233 1.015.005 2.033-.065 3.053-.21.675-.098 1.192.15 1.867.112 1.5-.09 2.943-.135 4.328-.135 1.255.005 2.717-.06 4.387-.195a38.25 38.25 0 0 1 6.893.053c.695.07 1.432.25 2.212.54a61.91 61.91 0 0 0 2.153.757z" fill="#47697c" class="C"/></svg>
